<?xml version="1.0" standalone="no"?>
<!DOCTYPE svg PUBLIC "-//W3C//DTD SVG 20010904//EN"
 "http://www.w3.org/TR/2001/REC-SVG-20010904/DTD/svg10.dtd">
<svg version="1.0" xmlns="http://www.w3.org/2000/svg"
 width="800.000000pt" height="600.000000pt" viewBox="0 0 800.000000 600.000000"
 preserveAspectRatio="xMidYMid meet">

<g transform="translate(0.000000,600.000000) scale(0.100000,-0.100000)"
fill="#000000" stroke="none">
<path d="M0 3000 l0 -3000 4000 0 4000 0 0 3000 0 3000 -4000 0 -4000 0 0
-3000z m3731 1084 c59 -32 113 -95 129 -152 5 -20 10 -109 10 -197 0 -147 -2
-164 -24 -210 -13 -27 -36 -62 -52 -77 -16 -15 -170 -121 -342 -237 l-314
-210 315 -209 c189 -127 327 -226 346 -249 17 -21 38 -60 46 -87 20 -68 20
-304 0 -372 -43 -144 -221 -227 -357 -166 -24 11 -215 135 -425 276 -278 187
-394 271 -428 309 -56 64 -110 172 -124 251 -17 91 -14 438 4 514 21 87 68
176 128 240 61 64 816 577 881 598 61 21 145 11 207 -22z m751 26 c50 -14 766
-494 849 -569 78 -71 133 -166 154 -268 10 -46 15 -133 15 -264 0 -218 -14
-304 -67 -402 -52 -96 -122 -152 -523 -421 -212 -142 -400 -265 -419 -273 -52
-22 -150 -18 -207 8 -63 30 -119 89 -138 146 -18 54 -23 334 -6 392 22 78 53
105 391 333 l329 221 -320 214 c-413 276 -405 265 -398 544 3 136 6 159 26
196 61 116 193 176 314 143z"/>
</g>
</svg>
