<?xml version="1.0" standalone="no"?>
<!DOCTYPE svg PUBLIC "-//W3C//DTD SVG 20010904//EN"
 "http://www.w3.org/TR/2001/REC-SVG-20010904/DTD/svg10.dtd">
<svg version="1.0" xmlns="http://www.w3.org/2000/svg"
 width="786.000000pt" height="691.000000pt" viewBox="0 0 786.000000 691.000000"
 preserveAspectRatio="xMidYMid meet">

<g transform="translate(0.000000,691.000000) scale(0.100000,-0.100000)"
fill="#000000" stroke="none">
<path d="M3680 6355 c-507 -63 -954 -240 -1349 -535 -602 -449 -986 -1092
-1103 -1845 -31 -203 -31 -597 0 -802 129 -831 582 -1525 1287 -1973 343 -218
743 -357 1180 -411 129 -16 481 -16 610 0 643 79 1191 338 1644 775 664 642
966 1569 810 2486 -195 1145 -1093 2059 -2237 2275 -236 45 -614 58 -842 30z
m695 -931 c138 -25 253 -49 257 -53 4 -4 1 -43 -8 -86 -8 -44 -32 -172 -54
-285 -21 -113 -66 -347 -99 -520 -33 -173 -164 -862 -291 -1530 -127 -668
-233 -1227 -236 -1243 -3 -15 -9 -27 -14 -27 -17 0 -532 99 -536 103 -5 4 19
133 201 1087 232 1215 495 2598 495 2605 0 3 8 4 18 1 9 -3 130 -26 267 -52z
m1041 -819 c504 -531 613 -646 789 -829 104 -109 196 -208 204 -219 14 -19 10
-24 -45 -76 -91 -84 -854 -811 -1078 -1025 -109 -105 -201 -192 -206 -194 -4
-1 -22 14 -40 35 -18 21 -87 94 -152 161 -65 68 -118 127 -118 131 0 5 24 30
53 56 28 26 131 123 227 215 96 92 297 282 445 424 149 141 270 260 270 265 0
6 -36 47 -80 93 -43 46 -118 124 -165 173 -344 362 -486 512 -561 590 -47 50
-105 110 -128 135 l-42 45 168 163 168 162 55 -57 c30 -32 136 -143 236 -248z
m-2186 -31 c0 -6 -30 -39 -67 -74 -69 -65 -92 -87 -453 -430 -113 -107 -254
-242 -315 -299 -60 -57 -123 -116 -138 -131 l-29 -27 213 -224 c117 -123 258
-271 313 -329 327 -341 451 -474 451 -484 0 -11 -314 -316 -326 -316 -13 0
-1294 1346 -1294 1359 0 4 63 68 140 142 146 140 1091 1037 1160 1103 l40 37
152 -158 c84 -87 152 -163 153 -169z"/>
</g>
</svg>
